<svg xmlns="http://www.w3.org/2000/svg" width="400" height="400" viewBox="0 0 400 400"><rect width="100%" height="100%" fill="#10b981"/><path fill="#FFFFFF" d="M105.59 187.2h3.66v26.03h-4.27v-16.81q0-1.01.11-2.18l-7.87 14.78q-.56 1.06-1.71 1.06h-.68q-1.15 0-1.71-1.06l-7.96-14.83q.06.59.09 1.17.04.57.04 1.06v16.81h-4.27V187.2h3.66q.32 0 .55.02.24.02.43.09t.34.23q.15.17.3.44l7.79 14.45q.31.58.57 1.19t.51 1.26q.25-.67.52-1.29t.58-1.2l7.68-14.41q.15-.27.31-.44.16-.16.35-.23t.43-.09q.23-.02.55-.02m18.51 21.26v-3.11q-1.93.09-3.24.33-1.32.24-2.11.62t-1.13.88q-.35.51-.35 1.1 0 1.17.7 1.67.69.51 1.81.51 1.36 0 2.36-.5 1-.49 1.96-1.5m-9.4-9.7-.79-1.42q3.18-2.92 7.67-2.92 1.62 0 2.89.53 1.28.53 2.16 1.48.89.94 1.35 2.26.45 1.31.45 2.88v11.66h-2.01q-.63 0-.97-.19-.35-.19-.54-.76l-.4-1.34q-.7.63-1.37 1.11-.66.48-1.38.8-.72.33-1.54.5t-1.81.17q-1.17 0-2.16-.32-.99-.31-1.71-.94t-1.12-1.57q-.39-.93-.39-2.18 0-.7.23-1.39t.77-1.32q.53-.63 1.37-1.19.85-.56 2.08-.97 1.23-.42 2.87-.68t3.75-.31v-1.08q0-1.86-.8-2.75-.79-.89-2.28-.89-1.08 0-1.79.25t-1.25.57q-.54.31-.98.57-.45.25-.99.25-.46 0-.79-.25-.32-.24-.52-.56m17.91-12.28h4.45v15.32h.82q.45 0 .72-.12.26-.11.53-.47l4.59-5.67q.28-.38.64-.58.35-.2.9-.2h4.07l-5.74 6.86q-.61.81-1.33 1.24.38.27.67.63.3.36.57.78l6.16 8.96h-4.02q-.52 0-.9-.17t-.63-.62l-4.71-7q-.25-.42-.53-.54-.27-.13-.81-.13h-1v8.46h-4.45zm22.75 15.39h8.39q0-.86-.24-1.63-.24-.76-.73-1.34-.49-.57-1.23-.91-.75-.33-1.74-.33-1.93 0-3.03 1.1-1.11 1.1-1.42 3.11m11.34 2.68h-11.43q.11 1.43.51 2.46.39 1.04 1.04 1.71.65.68 1.54 1.01t1.97.33 1.86-.25q.79-.25 1.37-.56.59-.3 1.03-.56.44-.25.85-.25.56 0 .83.42l1.28 1.62q-.74.86-1.66 1.44-.92.59-1.91.94-1 .35-2.04.5-1.03.14-2.01.14-1.92 0-3.58-.64-1.65-.64-2.88-1.89-1.22-1.25-1.92-3.1-.7-1.84-.7-4.27 0-1.89.61-3.56.61-1.66 1.75-2.89 1.15-1.24 2.79-1.96 1.65-.72 3.72-.72 1.75 0 3.22.56 1.48.56 2.54 1.63t1.66 2.63q.61 1.56.61 3.55 0 1.01-.22 1.36-.21.35-.83.35m19.3-1.15h8.28l-3.17-8.66q-.23-.57-.48-1.36-.26-.8-.51-1.71-.23.91-.48 1.71-.26.81-.49 1.4zm6.61-16.2 10.22 26.03h-3.74q-.63 0-1.03-.32-.4-.31-.59-.78l-1.95-5.31h-10.78l-1.94 5.31q-.15.42-.56.76-.42.34-1.03.34h-3.78l10.24-26.03zm17.76 13.09h3.62q1.33 0 2.32-.34.99-.33 1.65-.95t.98-1.51.32-1.99q0-1.04-.32-1.89t-.97-1.44-1.64-.91q-.99-.31-2.34-.31h-3.62zm-4.84-13.09h8.46q2.61 0 4.52.61 1.91.62 3.15 1.71 1.24 1.1 1.84 2.63.61 1.53.61 3.35 0 1.89-.63 3.46-.63 1.58-1.89 2.71-1.26 1.14-3.16 1.77t-4.44.63h-3.62v9.16h-4.84zm27.14 0v26.03h-4.86V187.2zm32.44 19.89q.4 0 .7.31l1.91 2.07q-1.58 1.96-3.9 3-2.31 1.05-5.55 1.05-2.9 0-5.21-.99t-3.95-2.76q-1.64-1.76-2.51-4.21-.88-2.45-.88-5.34 0-2.94.94-5.38t2.64-4.2 4.06-2.75q2.35-.98 5.22-.98 2.84 0 5.04.94 2.21.94 3.76 2.45l-1.62 2.25q-.15.21-.37.38-.23.16-.62.16-.27 0-.56-.16-.29-.15-.63-.37-.34-.23-.79-.5t-1.05-.49q-.59-.23-1.37-.38-.79-.15-1.81-.15-1.75 0-3.2.62t-2.49 1.8-1.62 2.88-.58 3.88q0 2.19.62 3.9.63 1.71 1.69 2.88t2.5 1.79 3.1.62q.99 0 1.79-.1.8-.11 1.47-.35.68-.23 1.28-.6t1.2-.91q.18-.16.38-.26.19-.1.41-.1m14.99 1.37v-3.11q-1.92.09-3.24.33-1.31.24-2.1.62t-1.14.88q-.34.51-.34 1.1 0 1.17.69 1.67.7.51 1.81.51 1.37 0 2.37-.5 1-.49 1.95-1.5m-9.39-9.7-.79-1.42q3.18-2.92 7.66-2.92 1.62 0 2.9.53t2.16 1.48q.88.94 1.34 2.26.46 1.31.46 2.88v11.66h-2.01q-.63 0-.98-.19-.34-.19-.54-.76l-.39-1.34q-.7.63-1.37 1.11t-1.39.8q-.72.33-1.54.5-.81.17-1.8.17-1.17 0-2.16-.32-.99-.31-1.71-.94t-1.12-1.57q-.4-.93-.4-2.18 0-.7.24-1.39.23-.69.76-1.32t1.38-1.19 2.08-.97q1.23-.42 2.87-.68t3.74-.31v-1.08q0-1.86-.79-2.75t-2.28-.89q-1.08 0-1.8.25-.71.25-1.25.57-.54.31-.98.57-.44.25-.98.25-.47 0-.79-.25-.32-.24-.52-.56m17.96-12.28h4.45v26.75h-4.45zm8.95 0h4.44v26.75h-4.44zm21.17 10.28-1.01 1.6q-.18.29-.38.41-.2.11-.5.11-.33 0-.7-.18t-.85-.4q-.49-.23-1.11-.41t-1.47-.18q-1.31 0-2.06.56-.74.56-.74 1.46 0 .59.38 1 .39.4 1.03.71t1.45.55 1.64.53q.84.29 1.65.66t1.45.93q.64.57 1.03 1.36.38.79.38 1.91 0 1.33-.47 2.46-.48 1.12-1.42 1.94-.93.82-2.31 1.28t-3.18.46q-.95 0-1.86-.17t-1.75-.48q-.83-.31-1.54-.72t-1.25-.9l1.02-1.69q.2-.31.47-.47t.68-.16q.42 0 .79.23.37.24.85.51.49.27 1.14.5.66.23 1.67.23.79 0 1.36-.19.57-.18.93-.49.37-.31.54-.71.18-.41.18-.84 0-.65-.39-1.06t-1.03-.72-1.46-.55q-.81-.24-1.67-.53-.85-.29-1.67-.68-.82-.38-1.46-.98-.64-.59-1.03-1.45-.38-.87-.38-2.09 0-1.14.45-2.16.45-1.03 1.32-1.79.87-.77 2.18-1.23 1.3-.46 3.01-.46 1.91 0 3.48.63 1.56.63 2.61 1.66"/></svg>