<svg xmlns="http://www.w3.org/2000/svg" width="400" height="400" viewBox="0 0 400 400"><rect width="100%" height="100%" fill="#3b82f6"/><path fill="#FFFFFF" d="M97.855 206.685q.38 0 .68.3l1.86 2.01q-1.54 1.91-3.79 2.92-2.25 1.02-5.4 1.02-2.82 0-5.07-.96-2.25-.97-3.84-2.68-1.59-1.72-2.44-4.1t-.85-5.19q0-2.86.91-5.23t2.57-4.08q1.65-1.72 3.94-2.67 2.29-.96 5.08-.96 2.76 0 4.91.91 2.14.91 3.64 2.38l-1.57 2.19q-.14.21-.36.37t-.6.16q-.27 0-.55-.15t-.61-.37-.77-.48-1.01-.48q-.58-.22-1.34-.37t-1.76-.15q-1.7 0-3.11.61-1.41.6-2.42 1.75-1.02 1.14-1.58 2.8-.56 1.65-.56 3.77 0 2.13.61 3.79.6 1.67 1.63 2.8 1.04 1.14 2.44 1.75 1.4.6 3.01.6.96 0 1.74-.11.78-.1 1.43-.33.66-.23 1.25-.58.58-.36 1.16-.89.17-.16.37-.25.19-.1.4-.1m8.91-10.9.26 2.03q.84-1.61 1.99-2.53 1.16-.92 2.73-.92 1.25 0 2 .54l-.28 3.24q-.09.32-.25.45-.17.13-.45.13-.26 0-.78-.09t-1.01-.09q-.71 0-1.27.21t-1.01.61q-.45.39-.79.95t-.64 1.28v11.06h-4.32v-17.96h2.54q.66 0 .93.24.26.24.35.85m12.65 5.83h8.15q0-.84-.23-1.59-.24-.74-.71-1.3t-1.2-.88q-.73-.33-1.69-.33-1.87 0-2.95 1.07-1.07 1.07-1.37 3.03m11.02 2.6h-11.11q.11 1.39.49 2.39.39 1.01 1.02 1.67.63.65 1.49.98.87.32 1.92.32t1.81-.25q.76-.24 1.33-.54t1-.54q.43-.25.83-.25.54 0 .8.41l1.25 1.57q-.72.84-1.61 1.41-.9.57-1.87.91t-1.97.48q-1.01.14-1.96.14-1.87 0-3.48-.62t-2.8-1.84q-1.19-1.21-1.87-3.01-.68-1.79-.68-4.15 0-1.84.59-3.46.6-1.62 1.71-2.82t2.71-1.9 3.61-.7q1.7 0 3.14.55 1.43.54 2.46 1.58 1.04 1.04 1.62 2.56.59 1.51.59 3.45 0 .98-.21 1.32t-.81.34m13.74 3.8v-3.03q-1.87.09-3.15.33-1.28.23-2.05.6t-1.1.86-.33 1.07q0 1.13.67 1.62.68.49 1.76.49 1.33 0 2.3-.48t1.9-1.46m-9.13-9.43-.77-1.38q3.09-2.84 7.45-2.84 1.58 0 2.82.52 1.24.51 2.1 1.43t1.3 2.2q.45 1.28.45 2.8v11.34h-1.96q-.61 0-.95-.18-.33-.19-.52-.75l-.39-1.29q-.68.61-1.33 1.07-.64.47-1.34.78-.7.32-1.5.48-.8.17-1.76.17-1.14 0-2.1-.31-.96-.3-1.66-.92-.7-.61-1.09-1.52-.38-.91-.38-2.12 0-.68.23-1.35.22-.68.74-1.29t1.34-1.15q.82-.55 2.02-.95t2.79-.65q1.59-.26 3.64-.31v-1.05q0-1.8-.77-2.67t-2.22-.87q-1.05 0-1.74.25-.69.24-1.22.55-.52.31-.95.55-.43.25-.96.25-.45 0-.77-.24-.31-.24-.5-.55m23.39 14.35q-2.34 0-3.59-1.32t-1.25-3.65v-10.03h-1.84q-.35 0-.6-.23-.24-.22-.24-.68v-1.71l2.89-.48.91-4.9q.08-.35.33-.54.24-.19.63-.19h2.24v5.65h4.79v3.08h-4.79v9.73q0 .84.41 1.31.41.48 1.13.48.4 0 .67-.1t.48-.2q.2-.11.35-.2.16-.1.32-.1.19 0 .31.1.13.09.27.29l1.29 2.1q-.94.78-2.17 1.19-1.22.4-2.54.4m10.45-11.32h8.16q0-.84-.24-1.59-.24-.74-.71-1.3t-1.2-.88q-.72-.33-1.69-.33-1.87 0-2.94 1.07-1.08 1.07-1.38 3.03m11.03 2.6h-11.12q.11 1.39.49 2.39.39 1.01 1.02 1.67.63.65 1.5.98.86.32 1.91.32t1.81-.25q.76-.24 1.33-.54t1-.54q.43-.25.83-.25.54 0 .81.41l1.24 1.57q-.72.84-1.61 1.41t-1.86.91q-.98.34-1.98.48-1.01.14-1.95.14-1.88 0-3.49-.62t-2.8-1.84q-1.19-1.21-1.87-3.01-.68-1.79-.68-4.15 0-1.84.59-3.46.6-1.62 1.71-2.82t2.71-1.9 3.62-.7q1.69 0 3.13.55 1.43.54 2.47 1.58 1.03 1.04 1.62 2.56.58 1.51.58 3.45 0 .98-.21 1.32t-.8.34m18.76-1.12h8.05l-3.08-8.41q-.23-.56-.48-1.33-.24-.77-.49-1.67-.22.9-.47 1.68-.24.77-.47 1.35zm6.42-15.75 9.94 25.31h-3.64q-.61 0-1-.31-.38-.3-.58-.76l-1.89-5.16h-10.48l-1.89 5.16q-.14.4-.54.74-.4.33-1 .33h-3.67l9.95-25.31zm25.88 9.58-1.14 1.57q-.19.25-.37.39-.19.14-.54.14-.33 0-.64-.2-.32-.21-.76-.46-.43-.25-1.04-.45-.6-.21-1.49-.21-1.14 0-2 .42-.86.41-1.42 1.18-.57.77-.85 1.86t-.28 2.48q0 1.43.3 2.55.31 1.12.89 1.88.57.76 1.4 1.16.82.39 1.85.39t1.67-.25q.64-.26 1.08-.56.44-.31.76-.56.32-.26.73-.26.52 0 .78.41l1.25 1.57q-.72.84-1.56 1.41t-1.74.91-1.86.48q-.95.14-1.9.14-1.66 0-3.13-.62t-2.57-1.81-1.74-2.91q-.64-1.73-.64-3.93 0-1.98.57-3.67t1.67-2.92q1.1-1.24 2.73-1.94t3.74-.7q2.02 0 3.53.65t2.72 1.86m16.87 0-1.14 1.57q-.19.25-.37.39-.19.14-.54.14-.33 0-.64-.2-.32-.21-.76-.46-.43-.25-1.04-.45-.6-.21-1.49-.21-1.14 0-2 .42-.86.41-1.42 1.18-.57.77-.85 1.86t-.28 2.48q0 1.43.3 2.55.31 1.12.89 1.88.57.76 1.4 1.16.82.39 1.85.39t1.67-.25q.64-.26 1.08-.56.44-.31.76-.56.32-.26.73-.26.52 0 .78.41l1.25 1.57q-.72.84-1.56 1.41t-1.74.91-1.86.48q-.95.14-1.9.14-1.66 0-3.13-.62t-2.57-1.81-1.74-2.91q-.64-1.73-.64-3.93 0-1.98.57-3.67t1.67-2.92q1.1-1.24 2.73-1.94t3.74-.7q2.02 0 3.53.65t2.72 1.86m10.82-2.51q1.99 0 3.63.65 1.63.65 2.8 1.84 1.16 1.19 1.79 2.9.63 1.72.63 3.84 0 2.13-.63 3.85-.63 1.71-1.79 2.92-1.17 1.21-2.8 1.85-1.64.65-3.63.65-2.02 0-3.66-.65-1.65-.64-2.81-1.85t-1.8-2.92q-.64-1.72-.64-3.85 0-2.12.64-3.84.64-1.71 1.8-2.9t2.81-1.84q1.64-.65 3.66-.65m0 15.18q2.24 0 3.31-1.51 1.08-1.5 1.08-4.41 0-2.9-1.08-4.43-1.07-1.52-3.31-1.52-2.28 0-3.37 1.53-1.1 1.53-1.1 4.42t1.1 4.4q1.09 1.52 3.37 1.52m23.31-14.9h4.32v17.96h-2.64q-.86 0-1.09-.79l-.3-1.43q-1.1 1.12-2.43 1.81t-3.13.69q-1.47 0-2.6-.5t-1.9-1.41-1.16-2.16q-.4-1.25-.4-2.76v-11.41h4.33v11.41q0 1.65.76 2.55t2.28.9q1.12 0 2.1-.5t1.86-1.37zm12.33.79.3 1.42q.54-.54 1.15-1.01.6-.46 1.28-.78.67-.33 1.44-.51.77-.19 1.68-.19 1.47 0 2.61.5 1.13.5 1.9 1.4.76.9 1.15 2.16.39 1.25.39 2.75v11.43h-4.32v-11.43q0-1.64-.75-2.54-.75-.91-2.29-.91-1.12 0-2.1.51t-1.86 1.38v12.99h-4.32v-17.96h2.64q.84 0 1.1.79m21.99 17.45q-2.35 0-3.6-1.32t-1.25-3.65v-10.03h-1.84q-.35 0-.59-.23-.25-.22-.25-.68v-1.71l2.89-.48.91-4.9q.09-.35.33-.54.25-.19.63-.19h2.24v5.65h4.8v3.08h-4.8v9.73q0 .84.41 1.31.41.48 1.13.48.4 0 .67-.1.28-.1.48-.2l.36-.2q.15-.1.31-.1.19 0 .32.1.12.09.26.29l1.29 2.1q-.94.78-2.17 1.19-1.22.4-2.53.4"/></svg>