<svg xmlns="http://www.w3.org/2000/svg" width="400" height="400" viewBox="0 0 400 400"><rect width="100%" height="100%" fill="#8b5cf6"/><path fill="#FFFFFF" d="M97.945 196.445h10.56v12.87q-2.42 1.78-5.16 2.61-2.74.82-5.87.82-3.89 0-7.05-1.21-3.15-1.21-5.39-3.36-2.23-2.16-3.44-5.15t-1.21-6.54q0-3.58 1.17-6.57 1.16-3 3.31-5.15 2.14-2.16 5.2-3.35 3.06-1.18 6.86-1.18 1.94 0 3.62.3 1.69.31 3.13.85t2.63 1.31q1.18.77 2.17 1.69l-1.69 2.69q-.4.64-1.03.78-.64.14-1.39-.32-.73-.42-1.45-.84-.73-.41-1.62-.72t-2-.51-2.56-.2q-2.36 0-4.26.8-1.9.79-3.25 2.26-1.34 1.48-2.06 3.54-.73 2.07-.73 4.62 0 2.73.78 4.88.78 2.14 2.2 3.63 1.42 1.48 3.42 2.26t4.47.78q1.76 0 3.14-.37 1.39-.37 2.71-1.01v-5.77h-4q-.58 0-.9-.31-.31-.32-.31-.79zm19.71 2.07h10.25q0-1.06-.3-1.99-.29-.94-.89-1.64-.59-.71-1.5-1.11-.92-.41-2.13-.41-2.35 0-3.71 1.34-1.35 1.34-1.72 3.81m13.86 3.28h-13.97q.13 1.73.61 3 .49 1.26 1.28 2.09.79.82 1.88 1.23t2.41.41 2.28-.31q.95-.31 1.67-.68.71-.38 1.25-.68.54-.31 1.05-.31.68 0 1.01.5l1.56 1.98q-.9 1.06-2.02 1.78-1.12.71-2.34 1.14-1.23.43-2.49.6-1.27.18-2.45.18-2.36 0-4.38-.78-2.03-.78-3.52-2.31-1.5-1.53-2.36-3.78-.85-2.26-.85-5.23 0-2.31.74-4.34.75-2.04 2.15-3.55 1.4-1.5 3.41-2.38t4.54-.88q2.14 0 3.94.68t3.1 1.99 2.04 3.21q.73 1.9.73 4.35 0 1.23-.26 1.66t-1.01.43m12.87 10.95q-2.95 0-4.52-1.66-1.58-1.66-1.58-4.59v-12.6h-2.31q-.44 0-.74-.29-.31-.28-.31-.86v-2.15l3.63-.6 1.14-6.16q.11-.44.42-.68t.79-.24h2.82v7.11h6.03v3.87h-6.03v12.23q0 1.06.51 1.65.52.59 1.42.59.51 0 .85-.12t.59-.25q.26-.13.46-.25.19-.12.39-.12.24 0 .4.12.15.12.33.36l1.63 2.64q-1.19.99-2.73 1.5-1.54.5-3.19.5m27.08-12.36h10.12l-3.87-10.58q-.29-.71-.6-1.68-.3-.96-.61-2.09-.29 1.13-.6 2.11-.3.97-.59 1.7zm8.07-19.8 12.5 31.81h-4.58q-.77 0-1.25-.38-.48-.39-.73-.96l-2.37-6.49h-13.18l-2.38 6.49q-.17.5-.68.92-.5.42-1.25.42h-4.62l12.52-31.81zm21.72 15.99h4.42q1.63 0 2.84-.4 1.21-.41 2.01-1.17t1.2-1.85.4-2.43q0-1.28-.4-2.31t-1.19-1.76-2-1.11q-1.21-.39-2.86-.39h-4.42zm-5.92-15.99h10.34q3.19 0 5.52.75 2.33.74 3.85 2.09 1.52 1.34 2.26 3.21.73 1.87.73 4.09 0 2.31-.77 4.24-.77 1.92-2.31 3.31-1.54 1.38-3.86 2.15t-5.42.77h-4.42v11.2h-5.92zm33.18 0v31.81h-5.94v-31.81zm23.71 0v13.33h1.39q.83 0 1.38-.23t.95-.74l8.78-11.11q.55-.7 1.15-.98.61-.27 1.53-.27h5.11l-10.72 13.22q-.94 1.21-1.96 1.72.73.26 1.31.73.59.48 1.11 1.25l11.05 14.89h-5.22q-1.05 0-1.57-.3-.52-.29-.87-.87l-9-11.74q-.41-.6-.96-.84t-1.59-.24h-1.87v13.99h-5.92v-31.81zm27.68 17.93h10.25q0-1.06-.3-1.99-.29-.94-.89-1.64-.59-.71-1.51-1.11-.91-.41-2.12-.41-2.35 0-3.71 1.34-1.35 1.34-1.72 3.81m13.86 3.28h-13.97q.13 1.73.61 3 .49 1.26 1.28 2.09.79.82 1.88 1.23t2.41.41 2.28-.31q.95-.31 1.67-.68.71-.38 1.25-.68.54-.31 1.05-.31.68 0 1.01.5l1.56 1.98q-.9 1.06-2.02 1.78-1.12.71-2.35 1.14-1.22.43-2.48.6-1.27.18-2.45.18-2.36 0-4.38-.78-2.03-.78-3.52-2.31-1.5-1.53-2.36-3.78-.85-2.26-.85-5.23 0-2.31.74-4.34.75-2.04 2.15-3.55 1.4-1.5 3.41-2.38t4.54-.88q2.14 0 3.94.68t3.1 1.99 2.04 3.21q.73 1.9.73 4.35 0 1.23-.26 1.66t-1.01.43m21.49-11.97h4.36l-12.3 28.77q-.24.58-.63.87-.38.3-1.17.3h-4.05l4.22-9.06-9.13-20.88h4.78q.63 0 1 .31.36.3.54.7l4.79 11.7q.24.6.41 1.19.16.6.32 1.21.2-.61.39-1.22.2-.6.44-1.2l4.54-11.68q.17-.44.58-.73.41-.28.91-.28"/></svg>